<?xml version="1.0" encoding="UTF-8"?>
<svg width="36px" height="36px" viewBox="0 0 36 36" version="1.1" xmlns="http://www.w3.org/2000/svg" xmlns:xlink="http://www.w3.org/1999/xlink">
    <!-- Generator: Sketch 47.1 (45422) - http://www.bohemiancoding.com/sketch -->
    <title>google+</title>
    <desc>Created with Sketch.</desc>
    <defs></defs>
    <g id="Page-1" stroke="none" stroke-width="1" fill="none" fill-rule="evenodd">
        <g id="google+" fill-rule="nonzero" fill="#4A90E2">
            <g id="icon-google-plus-copy" transform="translate(4.000000, 4.000000)">
                <path d="M15.315625,23.4371069 C15.315625,23.163522 15.315625,22.9811321 15.225,22.7075472 C15.134375,22.5251572 15.134375,22.2515723 15.04375,22.0691824 C14.953125,21.8867925 14.8625,21.7044025 14.771875,21.4308176 C14.590625,21.2484277 14.5,21.0660377 14.409375,20.8836478 C14.31875,20.7012579 14.1375,20.6100629 13.95625,20.336478 C13.775,20.1540881 13.59375,19.9716981 13.503125,19.8805031 C13.4125,19.7893082 13.23125,19.6069182 12.959375,19.4245283 C12.6875,19.2421384 12.50625,19.0597484 12.415625,19.0597484 C12.325,19.0597484 12.14375,18.8773585 11.871875,18.6949686 C11.6,18.5125786 11.41875,18.3301887 11.328125,18.3301887 C11.146875,18.3301887 10.875,18.3301887 10.421875,18.3301887 C9.7875,18.3301887 9.153125,18.3301887 8.609375,18.4213836 C7.975,18.5125786 7.340625,18.6037736 6.70625,18.8773585 C6.071875,19.0597484 5.528125,19.3333333 4.984375,19.6981132 C4.440625,20.0628931 4.078125,20.427673 3.80625,20.9748428 C3.534375,21.5220126 3.353125,22.1603774 3.353125,22.8899371 C3.353125,23.7106918 3.534375,24.4402516 3.9875,24.9874214 C4.440625,25.6257862 4.984375,26.081761 5.61875,26.4465409 C6.253125,26.8113208 6.978125,27.0849057 7.703125,27.2672956 C8.428125,27.4496855 9.153125,27.5408805 9.878125,27.5408805 C10.603125,27.5408805 11.2375,27.4496855 11.871875,27.3584906 C12.50625,27.1761006 13.05,26.9937107 13.59375,26.6289308 C14.1375,26.3553459 14.590625,25.8993711 14.8625,25.3522013 C15.134375,24.8050314 15.315625,24.1666667 15.315625,23.4371069 Z M13.23125,8.29874214 C13.23125,7.56918239 13.140625,6.83962264 12.959375,6.01886792 C12.778125,5.19811321 12.50625,4.46855346 12.14375,3.73899371 C11.78125,3.00943396 11.328125,2.37106918 10.69375,1.91509434 C10.059375,1.4591195 9.334375,1.18553459 8.609375,1.18553459 C7.521875,1.18553459 6.70625,1.55031447 6.071875,2.37106918 C5.4375,3.1918239 5.165625,4.10377358 5.165625,5.28930818 C5.165625,5.83647799 5.25625,6.3836478 5.346875,7.02201258 C5.4375,7.66037736 5.709375,8.20754717 5.98125,8.84591195 C6.253125,9.48427673 6.615625,10.0314465 6.978125,10.4874214 C7.340625,10.9433962 7.79375,11.3993711 8.3375,11.672956 C8.88125,11.9465409 9.425,12.1289308 10.059375,12.1289308 C11.146875,12.1289308 11.9625,11.7641509 12.50625,11.0345912 C12.959375,10.3962264 13.23125,9.48427673 13.23125,8.29874214 Z M10.965625,0 L18.578125,0 L16.221875,1.36792453 L13.865625,1.36792453 C14.68125,1.91509434 15.315625,2.64465409 15.76875,3.55660377 C16.221875,4.46855346 16.49375,5.47169811 16.49375,6.47484277 C16.49375,7.29559748 16.403125,8.1163522 16.13125,8.75471698 C15.859375,9.39308176 15.496875,9.94025157 15.134375,10.3962264 C14.771875,10.7610063 14.409375,11.2169811 13.95625,11.490566 C13.59375,11.8553459 13.23125,12.2201258 12.959375,12.5849057 C12.6875,12.9496855 12.596875,13.3144654 12.596875,13.7704403 C12.596875,14.0440252 12.6875,14.408805 12.86875,14.6823899 C13.05,14.9559748 13.321875,15.2295597 13.59375,15.5031447 C13.865625,15.7767296 14.228125,16.0503145 14.590625,16.3238994 C14.953125,16.5974843 15.315625,16.9622642 15.678125,17.327044 C16.040625,17.6918239 16.403125,18.0566038 16.675,18.5125786 C16.946875,18.9685535 17.21875,19.4245283 17.4,19.9716981 C17.58125,20.5188679 17.671875,21.1572327 17.671875,21.7955975 C17.671875,23.7106918 16.85625,25.3522013 15.225,26.7201258 C13.503125,28.2704403 11.05625,29 7.884375,29 C7.159375,29 6.525,28.908805 5.8,28.8176101 C5.075,28.7264151 4.35,28.5440252 3.715625,28.2704403 C2.990625,27.9968553 2.35625,27.6320755 1.8125,27.2672956 C1.26875,26.9025157 0.815625,26.3553459 0.453125,25.7169811 C0.18125,25.1698113 0,24.5314465 0,23.7106918 C0,22.9811321 0.18125,22.2515723 0.634375,21.3396226 C0.996875,20.6100629 1.540625,19.9716981 2.265625,19.4245283 C2.990625,18.8773585 3.896875,18.4213836 4.803125,18.1477987 C5.709375,17.8742138 6.615625,17.6918239 7.521875,17.509434 C8.3375,17.418239 9.24375,17.327044 10.15,17.2358491 C9.425,16.2327044 9.0625,15.4119497 9.0625,14.591195 C9.0625,14.408805 9.0625,14.3176101 9.0625,14.1352201 C9.0625,14.0440252 9.153125,13.8616352 9.153125,13.7704403 C9.153125,13.6792453 9.24375,13.5880503 9.334375,13.4056604 C9.425,13.2232704 9.425,13.1320755 9.425,13.0408805 C8.971875,13.1320755 8.51875,13.1320755 8.246875,13.1320755 C6.525,13.1320755 5.075,12.5849057 3.80625,11.3993711 C2.5375,10.2138365 1.99375,8.84591195 1.99375,7.11320755 C1.99375,5.47169811 2.5375,4.01257862 3.625,2.73584906 C4.7125,1.55031447 6.071875,0.729559748 7.703125,0.364779874 C8.790625,0.0911949686 9.878125,0 10.965625,0 Z M29,4.46855346 L29,6.74842767 L24.559375,6.74842767 L24.559375,11.2169811 L22.29375,11.2169811 L22.29375,6.74842767 L17.853125,6.74842767 L17.853125,4.46855346 L22.29375,4.46855346 L22.29375,0 L24.559375,0 L24.559375,4.46855346 L29,4.46855346 Z" id="Shape"></path>
            </g>
        </g>
    </g>
</svg>