<?xml version="1.0" encoding="UTF-8"?>
<svg width="30px" height="30px" viewBox="0 0 30 30" version="1.1" xmlns="http://www.w3.org/2000/svg" xmlns:xlink="http://www.w3.org/1999/xlink">
    <!-- Generator: Sketch 47.1 (45422) - http://www.bohemiancoding.com/sketch -->
    <title>icon-visits</title>
    <desc>Created with Sketch.</desc>
    <defs></defs>
    <g id="Page-1" stroke="none" stroke-width="1" fill="none" fill-rule="evenodd">
        <g id="icon-visits" fill-rule="nonzero" fill="#FFFFFF">
            <g id="Shape">
                <path d="M16.1538462,0 L13.8461538,0 C12.5769231,0 11.5384615,0.84375 11.5384615,1.875 L11.5384615,28.125 C11.5384615,29.15625 12.5769231,30 13.8461538,30 L16.1538462,30 C17.4230769,30 18.4615385,29.15625 18.4615385,28.125 L18.4615385,1.875 C18.4615385,0.84375 17.4230769,0 16.1538462,0 Z M16.1538462,27.1875 C16.1538462,27.75 15.6923077,28.125 15,28.125 C14.3076923,28.125 13.8461538,27.75 13.8461538,27.1875 L13.8461538,2.8125 C13.8461538,2.25 14.3076923,1.875 15,1.875 C15.6923077,1.875 16.1538462,2.25 16.1538462,2.8125 L16.1538462,27.1875 Z M4.61538462,8.4375 L2.30769231,8.4375 C1.03846154,8.4375 0,9.28125 0,10.3125 L0,28.125 C0,29.15625 1.03846154,30 2.30769231,30 L4.61538462,30 C5.88461538,30 6.92307692,29.15625 6.92307692,28.125 L6.92307692,10.3125 C6.92307692,9.28125 5.88461538,8.4375 4.61538462,8.4375 Z M4.61538462,27.1875 C4.61538462,27.75 4.15384615,28.125 3.46153846,28.125 C2.76923077,28.125 2.30769231,27.75 2.30769231,27.1875 L2.30769231,11.25 C2.30769231,10.6875 2.76923077,10.3125 3.46153846,10.3125 C4.15384615,10.3125 4.61538462,10.6875 4.61538462,11.25 L4.61538462,27.1875 Z M27.6923077,15 L25.3846154,15 C24.1153846,15 23.0769231,15.84375 23.0769231,16.875 L23.0769231,28.125 C23.0769231,29.15625 24.1153846,30 25.3846154,30 L27.6923077,30 C28.9615385,30 30,29.15625 30,28.125 L30,16.875 C30,15.84375 28.9615385,15 27.6923077,15 Z M27.6923077,27.1875 C27.6923077,27.75 27.2307692,28.125 26.5384615,28.125 C25.8461538,28.125 25.3846154,27.75 25.3846154,27.1875 L25.3846154,17.8125 C25.3846154,17.25 25.8461538,16.875 26.5384615,16.875 C27.2307692,16.875 27.6923077,17.25 27.6923077,17.8125 L27.6923077,27.1875 Z"></path>
            </g>
        </g>
    </g>
</svg>