<?xml version="1.0" encoding="UTF-8"?>
<svg width="36px" height="36px" viewBox="0 0 36 36" version="1.1" xmlns="http://www.w3.org/2000/svg" xmlns:xlink="http://www.w3.org/1999/xlink">
    <!-- Generator: Sketch 47.1 (45422) - http://www.bohemiancoding.com/sketch -->
    <title>twitter</title>
    <desc>Created with Sketch.</desc>
    <defs></defs>
    <g id="Page-1" stroke="none" stroke-width="1" fill="none" fill-rule="evenodd">
        <g id="twitter" fill-rule="nonzero" fill="#4A90E2">
            <g id="icon-twitter-copy" transform="translate(4.000000, 6.000000)">
                <path d="M29,2.85057471 C27.9158879,3.31034483 26.8317757,3.67816092 25.5669782,3.77011494 C26.8317757,3.03448276 27.7352025,1.83908046 28.1869159,0.459770115 C27.0124611,1.1954023 25.7476636,1.65517241 24.3925234,1.93103448 C23.3987539,0.735632184 21.7725857,0 20.1464174,0 C16.894081,0 14.1838006,2.66666667 14.1838006,6.06896552 C14.1838006,6.52873563 14.2741433,6.98850575 14.364486,7.44827586 C9.39563863,7.17241379 5.05919003,4.7816092 2.07788162,1.10344828 C1.53582555,2.02298851 1.26479751,3.03448276 1.26479751,4.13793103 C1.26479751,6.25287356 2.34890966,8.09195402 3.8847352,9.1954023 C2.89096573,9.1954023 1.98753894,8.91954023 1.17445483,8.45977011 C1.17445483,8.45977011 1.17445483,8.55172414 1.17445483,8.55172414 C1.17445483,11.4942529 3.25233645,13.8850575 5.96261682,14.4367816 C5.42056075,14.5287356 4.96884735,14.6206897 4.42679128,14.6206897 C4.06542056,14.6206897 3.70404984,14.6206897 3.34267913,14.5287356 C4.06542056,16.9195402 6.32398754,18.6666667 8.85358255,18.7586207 C6.86604361,20.4137931 4.24610592,21.3333333 1.44548287,21.3333333 C0.99376947,21.3333333 0.451713396,21.3333333 0,21.2413793 C2.61993769,22.9885057 5.78193146,24 9.12461059,24 C20.0560748,24 26.0186916,14.8045977 26.0186916,6.8045977 C26.0186916,6.52873563 26.0186916,6.25287356 26.0186916,6.06896552 C27.1931464,5.14942529 28.1869159,4.04597701 29,2.85057471 Z" id="Shape"></path>
            </g>
        </g>
    </g>
</svg>